<?xml version="1.0" encoding="UTF-8" standalone="no"?>
<!DOCTYPE svg PUBLIC "-//W3C//DTD SVG 1.1//EN"
 "http://www.w3.org/Graphics/SVG/1.1/DTD/svg11.dtd">
<!-- Generated by graphviz version 2.43.0 (0)
 -->
<!-- Title: %3 Pages: 1 -->
<svg width="488pt" height="260pt"
 viewBox="0.00 0.00 488.28 260.00" xmlns="http://www.w3.org/2000/svg" xmlns:xlink="http://www.w3.org/1999/xlink">
<g id="graph0" class="graph" transform="scale(1 1) rotate(0) translate(4 256)">
<title>%3</title>
<polygon fill="white" stroke="transparent" points="-4,4 -4,-256 484.28,-256 484.28,4 -4,4"/>
<!-- containers/eks_control_plane -->
<g id="node1" class="node">
<title>containers/eks_control_plane</title>
<ellipse fill="none" stroke="black" cx="175.09" cy="-90" rx="144.87" ry="18"/>
<text text-anchor="middle" x="175.09" y="-86.3" font-family="Times,serif" font-size="14.00">containers/eks_control_plane</text>
</g>
<!-- network/vpc -->
<g id="node2" class="node">
<title>network/vpc</title>
<ellipse fill="none" stroke="black" cx="175.09" cy="-18" rx="67.69" ry="18"/>
<text text-anchor="middle" x="175.09" y="-14.3" font-family="Times,serif" font-size="14.00">network/vpc</text>
</g>
<!-- containers/eks_control_plane&#45;&gt;network/vpc -->
<g id="edge1" class="edge">
<title>containers/eks_control_plane&#45;&gt;network/vpc</title>
<path fill="none" stroke="black" d="M175.09,-71.7C175.09,-63.98 175.09,-54.71 175.09,-46.11"/>
<polygon fill="black" stroke="black" points="178.59,-46.1 175.09,-36.1 171.59,-46.1 178.59,-46.1"/>
</g>
<!-- containers/gitops_bridge -->
<g id="node3" class="node">
<title>containers/gitops_bridge</title>
<ellipse fill="none" stroke="black" cx="126.09" cy="-234" rx="126.18" ry="18"/>
<text text-anchor="middle" x="126.09" y="-230.3" font-family="Times,serif" font-size="14.00">containers/gitops_bridge</text>
</g>
<!-- containers/gitops_bridge&#45;&gt;containers/eks_control_plane -->
<g id="edge2" class="edge">
<title>containers/gitops_bridge&#45;&gt;containers/eks_control_plane</title>
<path fill="none" stroke="black" d="M112.71,-215.9C100.03,-197.45 84.62,-167.55 97.09,-144 103.87,-131.19 115.29,-120.91 127.32,-112.93"/>
<polygon fill="black" stroke="black" points="129.44,-115.73 136.14,-107.52 125.79,-109.77 129.44,-115.73"/>
</g>
<!-- iam/eks_role -->
<g id="node4" class="node">
<title>iam/eks_role</title>
<ellipse fill="none" stroke="black" cx="175.09" cy="-162" rx="68.79" ry="18"/>
<text text-anchor="middle" x="175.09" y="-158.3" font-family="Times,serif" font-size="14.00">iam/eks_role</text>
</g>
<!-- containers/gitops_bridge&#45;&gt;iam/eks_role -->
<g id="edge3" class="edge">
<title>containers/gitops_bridge&#45;&gt;iam/eks_role</title>
<path fill="none" stroke="black" d="M137.95,-216.05C143.79,-207.71 150.95,-197.49 157.41,-188.25"/>
<polygon fill="black" stroke="black" points="160.47,-189.99 163.34,-179.79 154.73,-185.97 160.47,-189.99"/>
</g>
<!-- iam/eks_role&#45;&gt;containers/eks_control_plane -->
<g id="edge4" class="edge">
<title>iam/eks_role&#45;&gt;containers/eks_control_plane</title>
<path fill="none" stroke="black" d="M175.09,-143.7C175.09,-135.98 175.09,-126.71 175.09,-118.11"/>
<polygon fill="black" stroke="black" points="178.59,-118.1 175.09,-108.1 171.59,-118.1 178.59,-118.1"/>
</g>
<!-- ssm/parameter_store -->
<g id="node5" class="node">
<title>ssm/parameter_store</title>
<ellipse fill="none" stroke="black" cx="371.09" cy="-162" rx="109.38" ry="18"/>
<text text-anchor="middle" x="371.09" y="-158.3" font-family="Times,serif" font-size="14.00">ssm/parameter_store</text>
</g>
<!-- ssm/parameter_store&#45;&gt;containers/eks_control_plane -->
<g id="edge5" class="edge">
<title>ssm/parameter_store&#45;&gt;containers/eks_control_plane</title>
<path fill="none" stroke="black" d="M327.59,-145.46C298.89,-135.22 261.05,-121.7 230.24,-110.7"/>
<polygon fill="black" stroke="black" points="231.1,-107.29 220.51,-107.22 228.75,-113.88 231.1,-107.29"/>
</g>
</g>
</svg>
