<?xml version="1.0" encoding="UTF-8" standalone="no"?>
<!DOCTYPE svg PUBLIC "-//W3C//DTD SVG 1.1//EN"
 "http://www.w3.org/Graphics/SVG/1.1/DTD/svg11.dtd">
<!-- Generated by graphviz version 2.43.0 (0)
 -->
<!-- Title: %3 Pages: 1 -->
<svg width="434pt" height="188pt"
 viewBox="0.00 0.00 434.36 188.00" xmlns="http://www.w3.org/2000/svg" xmlns:xlink="http://www.w3.org/1999/xlink">
<g id="graph0" class="graph" transform="scale(1 1) rotate(0) translate(4 184)">
<title>%3</title>
<polygon fill="white" stroke="transparent" points="-4,4 -4,-184 430.36,-184 430.36,4 -4,4"/>
<!-- infrastructure/containers/eks_control_plane -->
<g id="node1" class="node">
<title>infrastructure/containers/eks_control_plane</title>
<ellipse fill="none" stroke="black" cx="213.18" cy="-90" rx="213.36" ry="18"/>
<text text-anchor="middle" x="213.18" y="-86.3" font-family="Times,serif" font-size="14.00">infrastructure/containers/eks_control_plane</text>
</g>
<!-- infrastructure/network/vpc -->
<g id="node2" class="node">
<title>infrastructure/network/vpc</title>
<ellipse fill="none" stroke="black" cx="213.18" cy="-18" rx="135.68" ry="18"/>
<text text-anchor="middle" x="213.18" y="-14.3" font-family="Times,serif" font-size="14.00">infrastructure/network/vpc</text>
</g>
<!-- infrastructure/containers/eks_control_plane&#45;&gt;infrastructure/network/vpc -->
<g id="edge1" class="edge">
<title>infrastructure/containers/eks_control_plane&#45;&gt;infrastructure/network/vpc</title>
<path fill="none" stroke="black" d="M213.18,-71.7C213.18,-63.98 213.18,-54.71 213.18,-46.11"/>
<polygon fill="black" stroke="black" points="216.68,-46.1 213.18,-36.1 209.68,-46.1 216.68,-46.1"/>
</g>
<!-- infrastructure/containers/gitops_bridge -->
<g id="node3" class="node">
<title>infrastructure/containers/gitops_bridge</title>
<ellipse fill="none" stroke="black" cx="213.18" cy="-162" rx="194.17" ry="18"/>
<text text-anchor="middle" x="213.18" y="-158.3" font-family="Times,serif" font-size="14.00">infrastructure/containers/gitops_bridge</text>
</g>
<!-- infrastructure/containers/gitops_bridge&#45;&gt;infrastructure/containers/eks_control_plane -->
<g id="edge2" class="edge">
<title>infrastructure/containers/gitops_bridge&#45;&gt;infrastructure/containers/eks_control_plane</title>
<path fill="none" stroke="black" d="M213.18,-143.7C213.18,-135.98 213.18,-126.71 213.18,-118.11"/>
<polygon fill="black" stroke="black" points="216.68,-118.1 213.18,-108.1 209.68,-118.1 216.68,-118.1"/>
</g>
</g>
</svg>
