<?xml version="1.0" encoding="UTF-8" standalone="no"?>
<!DOCTYPE svg PUBLIC "-//W3C//DTD SVG 1.1//EN"
 "http://www.w3.org/Graphics/SVG/1.1/DTD/svg11.dtd">
<!-- Generated by graphviz version 2.43.0 (0)
 -->
<!-- Title: %3 Pages: 1 -->
<svg width="440pt" height="188pt"
 viewBox="0.00 0.00 439.56 188.00" xmlns="http://www.w3.org/2000/svg" xmlns:xlink="http://www.w3.org/1999/xlink">
<g id="graph0" class="graph" transform="scale(1 1) rotate(0) translate(4 184)">
<title>%3</title>
<polygon fill="white" stroke="transparent" points="-4,4 -4,-184 435.56,-184 435.56,4 -4,4"/>
<!-- /infrastructure/containers/eks_control_plane -->
<g id="node1" class="node">
<title>/infrastructure/containers/eks_control_plane</title>
<ellipse fill="none" stroke="black" cx="215.78" cy="-90" rx="215.56" ry="18"/>
<text text-anchor="middle" x="215.78" y="-86.3" font-family="Times,serif" font-size="14.00">/infrastructure/containers/eks_control_plane</text>
</g>
<!-- /infrastructure/network/vpc -->
<g id="node2" class="node">
<title>/infrastructure/network/vpc</title>
<ellipse fill="none" stroke="black" cx="215.78" cy="-18" rx="139.18" ry="18"/>
<text text-anchor="middle" x="215.78" y="-14.3" font-family="Times,serif" font-size="14.00">/infrastructure/network/vpc</text>
</g>
<!-- /infrastructure/containers/eks_control_plane&#45;&gt;/infrastructure/network/vpc -->
<g id="edge1" class="edge">
<title>/infrastructure/containers/eks_control_plane&#45;&gt;/infrastructure/network/vpc</title>
<path fill="none" stroke="black" d="M215.78,-71.7C215.78,-63.98 215.78,-54.71 215.78,-46.11"/>
<polygon fill="black" stroke="black" points="219.28,-46.1 215.78,-36.1 212.28,-46.1 219.28,-46.1"/>
</g>
<!-- /infrastructure/iam/eks_role -->
<g id="node3" class="node">
<title>/infrastructure/iam/eks_role</title>
<ellipse fill="none" stroke="black" cx="215.78" cy="-162" rx="139.98" ry="18"/>
<text text-anchor="middle" x="215.78" y="-158.3" font-family="Times,serif" font-size="14.00">/infrastructure/iam/eks_role</text>
</g>
<!-- /infrastructure/iam/eks_role&#45;&gt;/infrastructure/containers/eks_control_plane -->
<g id="edge2" class="edge">
<title>/infrastructure/iam/eks_role&#45;&gt;/infrastructure/containers/eks_control_plane</title>
<path fill="none" stroke="black" d="M215.78,-143.7C215.78,-135.98 215.78,-126.71 215.78,-118.11"/>
<polygon fill="black" stroke="black" points="219.28,-118.1 215.78,-108.1 212.28,-118.1 219.28,-118.1"/>
</g>
</g>
</svg>
