<?xml version="1.0" encoding="UTF-8" standalone="no"?>
<!DOCTYPE svg PUBLIC "-//W3C//DTD SVG 1.1//EN"
 "http://www.w3.org/Graphics/SVG/1.1/DTD/svg11.dtd">
<!-- Generated by graphviz version 2.43.0 (0)
 -->
<!-- Title: %3 Pages: 1 -->
<svg width="496pt" height="188pt"
 viewBox="0.00 0.00 496.28 188.00" xmlns="http://www.w3.org/2000/svg" xmlns:xlink="http://www.w3.org/1999/xlink">
<g id="graph0" class="graph" transform="scale(1 1) rotate(0) translate(4 184)">
<title>%3</title>
<polygon fill="white" stroke="transparent" points="-4,4 -4,-184 492.28,-184 492.28,4 -4,4"/>
<!-- containers/eks_control_plane -->
<g id="node1" class="node">
<title>containers/eks_control_plane</title>
<ellipse fill="none" stroke="black" cx="252.09" cy="-90" rx="144.87" ry="18"/>
<text text-anchor="middle" x="252.09" y="-86.3" font-family="Times,serif" font-size="14.00">containers/eks_control_plane</text>
</g>
<!-- network/vpc -->
<g id="node2" class="node">
<title>network/vpc</title>
<ellipse fill="none" stroke="black" cx="252.09" cy="-18" rx="67.69" ry="18"/>
<text text-anchor="middle" x="252.09" y="-14.3" font-family="Times,serif" font-size="14.00">network/vpc</text>
</g>
<!-- containers/eks_control_plane&#45;&gt;network/vpc -->
<g id="edge1" class="edge">
<title>containers/eks_control_plane&#45;&gt;network/vpc</title>
<path fill="none" stroke="black" d="M252.09,-71.7C252.09,-63.98 252.09,-54.71 252.09,-46.11"/>
<polygon fill="black" stroke="black" points="255.59,-46.1 252.09,-36.1 248.59,-46.1 255.59,-46.1"/>
</g>
<!-- containers/gitops_bridge -->
<g id="node3" class="node">
<title>containers/gitops_bridge</title>
<ellipse fill="none" stroke="black" cx="126.09" cy="-162" rx="126.18" ry="18"/>
<text text-anchor="middle" x="126.09" y="-158.3" font-family="Times,serif" font-size="14.00">containers/gitops_bridge</text>
</g>
<!-- containers/gitops_bridge&#45;&gt;containers/eks_control_plane -->
<g id="edge2" class="edge">
<title>containers/gitops_bridge&#45;&gt;containers/eks_control_plane</title>
<path fill="none" stroke="black" d="M155.95,-144.41C173.08,-134.89 194.79,-122.83 213.24,-112.58"/>
<polygon fill="black" stroke="black" points="214.96,-115.63 222.01,-107.71 211.56,-109.51 214.96,-115.63"/>
</g>
<!-- ssm/parameter_store -->
<g id="node4" class="node">
<title>ssm/parameter_store</title>
<ellipse fill="none" stroke="black" cx="379.09" cy="-162" rx="109.38" ry="18"/>
<text text-anchor="middle" x="379.09" y="-158.3" font-family="Times,serif" font-size="14.00">ssm/parameter_store</text>
</g>
<!-- ssm/parameter_store&#45;&gt;containers/eks_control_plane -->
<g id="edge3" class="edge">
<title>ssm/parameter_store&#45;&gt;containers/eks_control_plane</title>
<path fill="none" stroke="black" d="M349.31,-144.59C332.05,-135.07 310.1,-122.98 291.43,-112.68"/>
<polygon fill="black" stroke="black" points="293.01,-109.56 282.56,-107.8 289.63,-115.69 293.01,-109.56"/>
</g>
</g>
</svg>
